M48
; DRILL file {KiCad (5.1.7)-1} date 07/20/22 01:18:39
; FORMAT={-:-/ absolute / metric / decimal}
; #@! TF.CreationDate,2022-07-20T01:18:39+08:00
; #@! TF.GenerationSoftware,Kicad,Pcbnew,(5.1.7)-1
; #@! TF.FileFunction,Plated,1,2,PTH
FMAT,2
METRIC
T1C0.300
T2C0.400
T3C0.800
T4C1.000
T5C1.200
T6C1.600
%
G90
G05
T1
X6.1Y62.88
X22.733Y44.958
X46.736Y35.052
X52.846Y34.558
X55.081Y35.828
X55.081Y35.193
X55.081Y34.558
X55.081Y33.923
X55.081Y33.288
T2
X8.255Y39.37
X9.525Y12.065
X12.065Y48.26
X12.7Y23.495
X15.875Y5.08
X17.145Y29.21
X19.685Y10.795
X21.082Y48.768
X21.336Y40.386
X24.13Y24.765
X25.146Y16.129
X25.4Y33.02
X26.67Y34.29
X27.051Y37.592
X27.305Y29.718
X28.575Y13.335
X31.115Y38.1
X31.115Y27.94
X31.75Y48.26
X31.75Y8.255
X32.385Y17.78
X35.56Y32.385
X35.56Y25.4
X35.56Y15.24
X38.1Y27.94
X38.1Y5.715
X38.735Y15.875
X38.735Y2.54
X40.64Y56.515
X41.91Y38.735
X42.799Y45.085
X43.18Y20.955
X44.45Y20.32
X46.355Y55.88
X46.355Y31.75
X46.355Y26.035
X46.736Y47.244
X48.387Y50.292
X49.022Y32.639
X50.292Y47.371
X50.292Y44.323
X50.89Y38.368
X51.435Y60.96
X51.435Y55.245
X52.705Y55.245
X52.705Y32.385
X52.705Y12.065
X53.61Y4.175
X53.721Y42.418
X54.61Y57.785
X54.61Y23.495
X54.61Y2.54
X55.245Y60.96
X57.785Y51.816
X58.801Y15.875
X58.928Y37.084
X59.055Y55.88
X59.055Y46.99
X64.135Y38.1
X64.77Y22.86
T3
X60.595Y29.21
X62.595Y29.21
X48.26Y10.775
X48.26Y8.275
X38.12Y34.925
X40.62Y34.925
X23.495Y32.98
X23.495Y30.48
X48.26Y18.395
X48.26Y15.895
X54.88Y29.21
X56.88Y29.21
X34.31Y9.398
X36.81Y9.398
X38.12Y42.545
X40.62Y42.545
X30.48Y32.98
X30.48Y30.48
X38.14Y50.165
X40.64Y50.165
T4
X8.5Y60.24
X8.5Y55.16
X13.58Y60.24
X13.58Y57.7
X13.58Y55.16
X36.235Y57.15
X38.735Y57.15
T5
X12.65Y40.0
X17.73Y40.0
X6.93Y4.75
X17.1Y13.0
T6
X17.73Y43.81
X17.73Y36.19
X12.65Y9.19
X13.285Y16.81
T0
M30
